<svg width="64" height="64" viewBox="0 0 64 64" fill="none" xmlns="http://www.w3.org/2000/svg">
<path d="M0 10C0 4.47715 4.47715 0 10 0H54C59.5228 0 64 4.47715 64 10V54C64 59.5228 59.5228 64 54 64H10C4.47715 64 0 59.5228 0 54V10Z" fill="#DCFCE7"/>
<path d="M40 30C40 34.993 34.461 40.193 32.601 41.799C32.4277 41.9293 32.2168 41.9998 32 41.9998C31.7832 41.9998 31.5723 41.9293 31.399 41.799C29.539 40.193 24 34.993 24 30C24 27.8783 24.8429 25.8434 26.3431 24.3431C27.8434 22.8429 29.8783 22 32 22C34.1217 22 36.1566 22.8429 37.6569 24.3431C39.1571 25.8434 40 27.8783 40 30Z" stroke="#00A63E" stroke-width="2" stroke-linecap="round" stroke-linejoin="round"/>
<path d="M32 33C33.6569 33 35 31.6569 35 30C35 28.3431 33.6569 27 32 27C30.3431 27 29 28.3431 29 30C29 31.6569 30.3431 33 32 33Z" stroke="#00A63E" stroke-width="2" stroke-linecap="round" stroke-linejoin="round"/>
</svg>
