<svg width="90" height="90" viewBox="0 0 90 90" fill="none" xmlns="http://www.w3.org/2000/svg">
<path d="M0 45C0 20.1472 20.1472 0 45 0C69.8528 0 90 20.1472 90 45C90 69.8528 69.8528 90 45 90C20.1472 90 0 69.8528 0 45Z" fill="#DCFCE7"/>
<path d="M45 26.25V63.75" stroke="#00A63E" stroke-width="2.66667" stroke-linecap="round" stroke-linejoin="round"/>
<path d="M54.375 31.875H40.3125C38.572 31.875 36.9028 32.5664 35.6721 33.7971C34.4414 35.0278 33.75 36.697 33.75 38.4375C33.75 40.178 34.4414 41.8472 35.6721 43.0779C36.9028 44.3086 38.572 45 40.3125 45H49.6875C51.428 45 53.0972 45.6914 54.3279 46.9221C55.5586 48.1528 56.25 49.822 56.25 51.5625C56.25 53.303 55.5586 54.9722 54.3279 56.2029C53.0972 57.4336 51.428 58.125 49.6875 58.125H33.75" stroke="#00A63E" stroke-width="2.66667" stroke-linecap="round" stroke-linejoin="round"/>
</svg>
